<svg width="512" height="512" viewBox="0 0 512 512" fill="none" xmlns="http://www.w3.org/2000/svg">
<path d="M158.019 414.007L212.48 503.329C215.269 507.904 220.163 510.779 225.517 510.988C230.871 511.197 235.974 508.711 239.112 504.368L299.893 420.207C286.226 421.279 272.671 421.871 259.139 421.981L227.267 466.112L198.72 419.292C185.283 417.996 171.744 416.234 158.019 414.007Z" fill="#4d6680"/>
<path d="M327.611 417.395L314.37 435.989L310.712 432.179L291.718 458.6L304.662 472.081C307.961 475.518 312.621 477.305 317.372 476.957C322.124 476.609 326.473 474.162 329.237 470.281L371.878 410.396C356.868 413.259 342.146 415.591 327.611 417.395Z" fill="#4d6680"/>
<path fill-rule="evenodd" clip-rule="evenodd" d="M445.382 272.198L295.275 58.5592C276.159 31.3528 235.841 31.3528 216.725 58.5592L66.2619 272.705C47.4596 299.465 60.5509 333.601 87.9535 341.159C208.104 374.299 300.764 374.352 423.403 340.886C451.045 333.343 464.227 299.019 445.382 272.198ZM321.458 40.1624C289.598 -5.18155 222.402 -5.18158 190.542 40.1623L40.0788 254.308C9.79454 297.41 28.664 358.001 79.4451 372.008C205.216 406.697 303.725 406.714 431.827 371.758C482.829 357.84 501.958 297.058 471.565 253.802L321.458 40.1624Z" fill="#4d6680"/>
<path d="M144 288H288V320H144V288Z" fill="#4d6680"/>
<path fill-rule="evenodd" clip-rule="evenodd" d="M301 224C314.255 224 325 213.255 325 200C325 186.745 314.255 176 301 176C287.745 176 277 186.745 277 200C277 213.255 287.745 224 301 224ZM301 256C331.928 256 357 230.928 357 200C357 169.072 331.928 144 301 144C270.072 144 245 169.072 245 200C245 230.928 270.072 256 301 256Z" fill="#4d6680"/>
</svg>
